<?xml version="1.0" encoding="UTF-8"?>
<svg width="200" height="200" viewBox="0 0 200 200" fill="none" xmlns="http://www.w3.org/2000/svg">
  <!-- Background circle -->
  <circle cx="100" cy="100" r="90" fill="#007aff" opacity="0.1"/>
  
  <!-- Location pin -->
  <path d="M100 25C79.5 25 63 41.5 63 62C63 91.5 100 145 100 145C100 145 137 91.5 137 62C137 41.5 120.5 25 100 25Z" fill="#007aff"/>
  
  <!-- Inner circle in location pin -->
  <circle cx="100" cy="62" r="15" fill="white"/>
  
  <!-- Wrench -->
  <path d="M130 130C126.5 126.5 115 115 115 115L105 125L115 135C115 135 126.5 123.5 130 127C133.5 130.5 130 140 125 145C120 150 110 153.5 105 150C100 146.5 102.5 138.5 102.5 138.5L92.5 128.5L72.5 148.5C70 151 65 151 62.5 148.5C60 146 60 141 62.5 138.5L82.5 118.5L72.5 108.5C72.5 108.5 64.5 111 61 106C57.5 101 61 91 66 86C71 81 80.5 77.5 84 81C87.5 84.5 76 96 76 96L86 106L96 96L86 86C86 86 74.5 97.5 71 94C67.5 90.5 71 81 76 76C81 71 91 67.5 94.5 71C98 74.5 95.5 82.5 95.5 82.5L105.5 92.5L115.5 82.5C118 80 123 80 125.5 82.5C128 85 128 90 125.5 92.5L115.5 102.5L125.5 112.5C125.5 112.5 133.5 110 137 115C140.5 120 137 130 132 135C127 140 117.5 143.5 114 140C110.5 136.5 122 125 122 125L112 115L102 125L112 135C112 135 123.5 123.5 127 127C130.5 130.5 127 135 127 135" fill="#ff3b30" opacity="0.85"/>
  
  <!-- Text - 'i' -->
  <circle cx="100" cy="62" r="7" fill="#007aff"/>
  
  <!-- Text - dot on 'i' but in a different location -->
  <circle cx="100" cy="42" r="5" fill="#007aff"/>
</svg> 